<svg id="Capa_1" data-name="Capa 1" xmlns="http://www.w3.org/2000/svg" viewBox="0 0 512 433.29"><defs><style>.cls-1{fill:#fff;opacity:0.53;}</style></defs><title>folder-white-opacity</title><path class="cls-1" d="M448.92,118.26H286.87A24.48,24.48,0,0,1,269.43,111L218.86,57.7a64.08,64.08,0,0,0-45.62-18.35H63.08A63.16,63.16,0,0,0,0,102.44V409.56a63.16,63.16,0,0,0,63.08,63.08H449.21A63.15,63.15,0,0,0,512,409.37v-228A63.16,63.16,0,0,0,448.92,118.26Zm24.5,291.19a24.52,24.52,0,0,1-24.31,24.62h-386a24.53,24.53,0,0,1-24.5-24.5V102.44a24.56,24.56,0,0,1,24.5-24.52H174.38a24.34,24.34,0,0,1,16.9,6.73l50.29,53a63.38,63.38,0,0,0,45.3,19.18H448.92a24.53,24.53,0,0,1,24.5,24.5V409.45Z" transform="translate(0 -39.36)"/></svg>